<svg xmlns="http://www.w3.org/2000/svg" width="512" height="512" viewBox="0 0 512 512">
  <rect width="512" height="512" rx="72" fill="#071d3b"/>
  <g fill="#71d6b1">
    <rect x="42" y="245" width="12" height="22"/><rect x="64" y="225" width="12" height="62"/>
    <rect x="86" y="201" width="12" height="110"/><rect x="108" y="177" width="12" height="158"/>
    <rect x="130" y="217" width="12" height="78"/><rect x="370" y="217" width="12" height="78"/>
    <rect x="392" y="177" width="12" height="158"/><rect x="414" y="201" width="12" height="110"/>
    <rect x="436" y="225" width="12" height="62"/><rect x="458" y="245" width="12" height="22"/>
  </g>
  <rect x="140" y="104" width="232" height="326" rx="24" fill="#fff1cf"/>
  <rect x="162" y="132" width="188" height="150" rx="8" fill="#10294d"/>
  <rect x="176" y="146" width="160" height="122" fill="#071d3b"/>
  <g fill="#ff7354">
    <path d="M250 176v62a24 24 0 1 1-14-22v-72h68v70a24 24 0 1 1-14-22v-48h-40z"/>
    <circle cx="317" cy="315" r="12"/><circle cx="347" cy="345" r="12"/>
    <circle cx="287" cy="345" r="12"/><circle cx="317" cy="375" r="12"/>
  </g>
  <g fill="#18335b"><rect x="180" y="335" width="68" height="20" rx="4"/><rect x="204" y="311" width="20" height="68" rx="4"/></g>
  <rect x="218" y="400" width="30" height="9" rx="4" fill="#18335b"/>
  <rect x="264" y="400" width="30" height="9" rx="4" fill="#18335b"/>
</svg>
